<svg width="128" height="128" viewBox="0 0 128 128" fill="none" xmlns="http://www.w3.org/2000/svg">
<rect width="128" height="128" rx="8" fill="black"/>
<path d="M27.112 99V37.56L33.832 44.28H13.672V31.8H42.664V99H27.112ZM82.1778 100.152C76.5458 100.152 71.6178 99.32 67.3938 97.656C63.1698 95.928 59.8738 93.528 57.5058 90.456C55.1378 87.32 53.9538 83.672 53.9538 79.512C53.9538 75.352 55.1058 71.832 57.4098 68.952C59.7778 66.008 63.0738 63.8 67.2978 62.328C71.5218 60.792 76.4818 60.024 82.1778 60.024C87.9378 60.024 92.9298 60.792 97.1538 62.328C101.442 63.8 104.738 66.008 107.042 68.952C109.41 71.832 110.594 75.352 110.594 79.512C110.594 83.672 109.41 87.32 107.042 90.456C104.674 93.528 101.346 95.928 97.0578 97.656C92.8338 99.32 87.8738 100.152 82.1778 100.152ZM82.1778 88.728C86.0818 88.728 89.1538 87.864 91.3938 86.136C93.6978 84.408 94.8498 82.04 94.8498 79.032C94.8498 76.024 93.6978 73.688 91.3938 72.024C89.1538 70.296 86.0818 69.432 82.1778 69.432C78.3378 69.432 75.2978 70.296 73.0578 72.024C70.8178 73.688 69.6978 76.024 69.6978 79.032C69.6978 82.04 70.8178 84.408 73.0578 86.136C75.2978 87.864 78.3378 88.728 82.1778 88.728ZM82.1778 67.896C76.9938 67.896 72.4498 67.192 68.5458 65.784C64.7058 64.376 61.6978 62.328 59.5218 59.64C57.4098 56.888 56.3538 53.624 56.3538 49.848C56.3538 45.88 57.4418 42.488 59.6178 39.672C61.7938 36.792 64.8338 34.584 68.7378 33.048C72.6418 31.448 77.1218 30.648 82.1778 30.648C87.3618 30.648 91.8738 31.448 95.7138 33.048C99.6178 34.584 102.658 36.792 104.834 39.672C107.074 42.488 108.194 45.88 108.194 49.848C108.194 53.624 107.106 56.888 104.93 59.64C102.818 62.328 99.8098 64.376 95.9058 65.784C92.0018 67.192 87.4258 67.896 82.1778 67.896ZM82.1778 58.776C85.4418 58.776 88.0018 58.04 89.8578 56.568C91.7778 55.096 92.7378 53.08 92.7378 50.52C92.7378 47.832 91.7458 45.752 89.7618 44.28C87.8418 42.808 85.3138 42.072 82.1778 42.072C79.1058 42.072 76.6098 42.808 74.6898 44.28C72.7698 45.752 71.8098 47.832 71.8098 50.52C71.8098 53.08 72.7378 55.096 74.5938 56.568C76.4498 58.04 78.9778 58.776 82.1778 58.776Z" fill="white"/>
</svg>
