<svg width="128" height="128" viewBox="0 0 128 128" fill="none" xmlns="http://www.w3.org/2000/svg">
<rect width="128" height="128" rx="8" fill="#C9A421"/>
<path d="M30.112 99V37.56L36.832 44.28H16.672V31.8H45.664V99H30.112ZM56.7617 99V88.92L82.6818 64.44C84.7298 62.584 86.2338 60.92 87.1938 59.448C88.1538 57.976 88.7938 56.632 89.1138 55.416C89.4978 54.2 89.6898 53.08 89.6898 52.056C89.6898 49.368 88.7618 47.32 86.9058 45.912C85.1138 44.44 82.4578 43.704 78.9377 43.704C76.1218 43.704 73.4978 44.248 71.0658 45.336C68.6978 46.424 66.6818 48.12 65.0178 50.424L53.6898 43.128C56.2498 39.288 59.8338 36.248 64.4418 34.008C69.0498 31.768 74.3618 30.648 80.3778 30.648C85.3698 30.648 89.7218 31.48 93.4338 33.144C97.2098 34.744 100.122 37.016 102.17 39.96C104.282 42.904 105.338 46.424 105.338 50.52C105.338 52.696 105.05 54.872 104.474 57.048C103.962 59.16 102.874 61.4 101.21 63.768C99.6098 66.136 97.2418 68.792 94.1058 71.736L72.6018 91.992L69.6258 86.328H107.546V99H56.7617Z" fill="white"/>
</svg>
