<svg width="128" height="128" viewBox="0 0 128 128" fill="none" xmlns="http://www.w3.org/2000/svg">
<rect width="128" height="128" rx="8" fill="#0088C2"/>
<path d="M26.112 99V37.56L32.832 44.28H12.672V31.8H41.664V99H26.112ZM82.1378 100.152C76.6338 100.152 71.7058 98.808 67.3538 96.12C63.0018 93.368 59.5778 89.4 57.0818 84.216C54.5858 79.032 53.3378 72.76 53.3378 65.4C53.3378 58.04 54.5858 51.768 57.0818 46.584C59.5778 41.4 63.0018 37.464 67.3538 34.776C71.7058 32.024 76.6338 30.648 82.1378 30.648C87.7058 30.648 92.6338 32.024 96.9218 34.776C101.274 37.464 104.698 41.4 107.194 46.584C109.69 51.768 110.938 58.04 110.938 65.4C110.938 72.76 109.69 79.032 107.194 84.216C104.698 89.4 101.274 93.368 96.9218 96.12C92.6338 98.808 87.7058 100.152 82.1378 100.152ZM82.1378 87C84.7618 87 87.0338 86.264 88.9538 84.792C90.9378 83.32 92.4738 80.984 93.5618 77.784C94.7138 74.584 95.2898 70.456 95.2898 65.4C95.2898 60.344 94.7138 56.216 93.5618 53.016C92.4738 49.816 90.9378 47.48 88.9538 46.008C87.0338 44.536 84.7618 43.8 82.1378 43.8C79.5778 43.8 77.3058 44.536 75.3218 46.008C73.4018 47.48 71.8658 49.816 70.7138 53.016C69.6258 56.216 69.0818 60.344 69.0818 65.4C69.0818 70.456 69.6258 74.584 70.7138 77.784C71.8658 80.984 73.4018 83.32 75.3218 84.792C77.3058 86.264 79.5778 87 82.1378 87Z" fill="white"/>
</svg>
