<svg width="128" height="128" viewBox="0 0 128 128" fill="none" xmlns="http://www.w3.org/2000/svg">
<rect width="128" height="128" rx="8" fill="#FF5555"/>
<path d="M28.112 99V37.56L34.832 44.28H14.672V31.8H43.664V99H28.112ZM85.3858 100.152C79.2418 100.152 73.8978 98.872 69.3538 96.312C64.8738 93.752 61.4178 90.008 58.9858 85.08C56.5538 80.152 55.3378 74.072 55.3378 66.84C55.3378 59.096 56.7778 52.536 59.6578 47.16C62.6018 41.784 66.6338 37.688 71.7538 34.872C76.9378 32.056 82.8898 30.648 89.6098 30.648C93.1938 30.648 96.6178 31.032 99.8818 31.8C103.146 32.568 105.962 33.72 108.33 35.256L102.57 46.68C100.714 45.4 98.7298 44.536 96.6178 44.088C94.5058 43.576 92.2978 43.32 89.9938 43.32C84.1698 43.32 79.5618 45.08 76.1698 48.6C72.7778 52.12 71.0818 57.336 71.0818 64.248C71.0818 65.4 71.0818 66.68 71.0818 68.088C71.1458 69.496 71.3378 70.904 71.6578 72.312L67.3378 68.28C68.5538 65.784 70.1218 63.704 72.0418 62.04C73.9618 60.312 76.2338 59.032 78.8578 58.2C81.5458 57.304 84.4898 56.856 87.6898 56.856C92.0418 56.856 95.9458 57.72 99.4018 59.448C102.858 61.176 105.61 63.608 107.658 66.744C109.77 69.88 110.826 73.56 110.826 77.784C110.826 82.328 109.674 86.296 107.37 89.688C105.13 93.016 102.09 95.608 98.2498 97.464C94.4738 99.256 90.1858 100.152 85.3858 100.152ZM84.5218 88.536C86.6978 88.536 88.6178 88.152 90.2818 87.384C92.0098 86.552 93.3538 85.368 94.3138 83.832C95.2738 82.296 95.7538 80.536 95.7538 78.552C95.7538 75.48 94.6978 73.048 92.5858 71.256C90.5378 69.4 87.7858 68.472 84.3298 68.472C82.0258 68.472 80.0098 68.92 78.2818 69.816C76.5538 70.648 75.1778 71.832 74.1538 73.368C73.1938 74.84 72.7138 76.568 72.7138 78.552C72.7138 80.472 73.1938 82.2 74.1538 83.736C75.1138 85.208 76.4578 86.392 78.1858 87.288C79.9138 88.12 82.0258 88.536 84.5218 88.536Z" fill="white"/>
</svg>
