<svg width="128" height="128" viewBox="0 0 128 128" fill="none" xmlns="http://www.w3.org/2000/svg">
<rect width="128" height="128" rx="8" fill="#B5336F"/>
<path d="M66.792 100.152C60.648 100.152 55.304 98.872 50.76 96.312C46.28 93.752 42.824 90.008 40.392 85.08C37.96 80.152 36.744 74.072 36.744 66.84C36.744 59.096 38.184 52.536 41.064 47.16C44.008 41.784 48.04 37.688 53.16 34.872C58.344 32.056 64.296 30.648 71.016 30.648C74.6 30.648 78.024 31.032 81.288 31.8C84.552 32.568 87.368 33.72 89.736 35.256L83.976 46.68C82.12 45.4 80.136 44.536 78.024 44.088C75.912 43.576 73.704 43.32 71.4 43.32C65.576 43.32 60.968 45.08 57.576 48.6C54.184 52.12 52.488 57.336 52.488 64.248C52.488 65.4 52.488 66.68 52.488 68.088C52.552 69.496 52.744 70.904 53.064 72.312L48.744 68.28C49.96 65.784 51.528 63.704 53.448 62.04C55.368 60.312 57.64 59.032 60.264 58.2C62.952 57.304 65.896 56.856 69.096 56.856C73.448 56.856 77.352 57.72 80.808 59.448C84.264 61.176 87.016 63.608 89.064 66.744C91.176 69.88 92.232 73.56 92.232 77.784C92.232 82.328 91.08 86.296 88.776 89.688C86.536 93.016 83.496 95.608 79.656 97.464C75.88 99.256 71.592 100.152 66.792 100.152ZM65.928 88.536C68.104 88.536 70.024 88.152 71.688 87.384C73.416 86.552 74.76 85.368 75.72 83.832C76.68 82.296 77.16 80.536 77.16 78.552C77.16 75.48 76.104 73.048 73.992 71.256C71.944 69.4 69.192 68.472 65.736 68.472C63.432 68.472 61.416 68.92 59.688 69.816C57.96 70.648 56.584 71.832 55.56 73.368C54.6 74.84 54.12 76.568 54.12 78.552C54.12 80.472 54.6 82.2 55.56 83.736C56.52 85.208 57.864 86.392 59.592 87.288C61.32 88.12 63.432 88.536 65.928 88.536Z" fill="white"/>
</svg>
