<svg width="179" height="90" viewBox="0 0 179 90" fill="none" xmlns="http://www.w3.org/2000/svg">
<path d="M46.6462 40.3639H50.7494C53.0168 40.3639 54.854 42.0282 54.854 44.0838C54.854 46.1381 53.0168 47.8036 50.7494 47.8036H46.6462V40.3639ZM46.6462 51.5248H49.3717L54.854 61.4477H60.5939L54.8411 51.1039C58.0356 50.0847 60.3254 47.3273 60.3254 44.0838C60.3254 39.9738 56.6511 36.6428 52.1176 36.6428H41.1727V45.5885V51.5254V61.4483H46.6455V51.5248H46.6462Z" fill="#0088C2"/>
<path d="M68.5352 36.6415H63.0631V61.4465H68.5352V36.6415Z" fill="#0088C2"/>
<path d="M136.941 36.6415H131.469V61.4465H136.941V36.6415Z" fill="#0088C2"/>
<path d="M145.633 46.5633L153.841 61.4477H159.313V36.6428H153.841V51.5248L145.633 36.6428H140.16V61.4477H145.633V46.5633Z" fill="#0088C2"/>
<path d="M115.05 56.4869H101.369V51.5248H109.578V46.5645H101.369V41.6036H115.05V36.6428H101.369H95.8971V41.6036V46.5645V51.5248V56.4869V61.4477H115.05V56.4869Z" fill="#0088C2"/>
<path d="M125.995 49.0446H117.788V54.0043H125.995V49.0446Z" fill="#0088C2"/>
<path d="M79.4843 61.4477H84.9482H84.9564L93.156 36.6428H87.6832L82.2152 53.1847L76.7472 36.6428H71.2758L79.4754 61.4477H79.4843Z" fill="#0088C2"/>
<path d="M24.757 41.6073C24.7958 41.6061 24.8338 41.6036 24.8739 41.6036C29.3428 41.6036 32.9649 44.9359 32.9649 49.0446C32.9649 53.1546 29.3428 56.4869 24.8739 56.4869C24.8338 56.4869 24.7958 56.4844 24.757 56.4844V41.6073ZM38.439 49.0446C38.439 42.1958 32.313 36.6428 24.7577 36.6428H19.2836V61.4477H24.7577C32.313 61.4477 38.439 55.8947 38.439 49.0446Z" fill="#0088C2"/>
<path d="M165.74 67.827H13.2603L5.0375 30.553H173.963L165.74 67.827ZM59.0632 23.2926C59.8734 22.6641 61.3748 21.367 62.8246 20.073C62.7301 20.269 62.6343 20.4631 62.5432 20.659C61.7887 22.2839 61.0894 24.0949 61.7439 25.8547C61.8336 26.0956 61.9512 26.3322 62.0946 26.554H54.6514C56.1814 25.5386 57.6284 24.406 59.0632 23.2926ZM72.7744 25.5842C73.4555 25.1615 74.1141 24.7092 74.7645 24.2495C76.444 23.0664 80.8579 19.4827 82.7365 17.9491C82.7154 17.9885 82.6944 18.0298 82.6726 18.0692C82.156 19.0403 81.6354 20.0114 81.142 20.9924C80.6308 22.0079 80.1184 23.1576 80.0796 24.2828C80.0633 25.2434 80.692 26.2084 81.6789 26.554H71.0752C71.6577 26.2521 72.2246 25.9249 72.7744 25.5842ZM128.105 8.62811C128.635 7.70877 129.339 6.87322 130.128 6.12394C130.926 5.36481 132.371 4.17805 133.639 4.46211C133.929 4.52681 134.27 4.87741 134.393 5.10848C135.128 6.48256 133.413 7.84309 132.403 8.62872C131.978 8.95961 131.537 9.27386 131.098 9.58935C130.665 9.90237 130.226 10.2105 129.78 10.5087C128.832 11.1415 127.824 11.6979 126.763 12.1637C126.991 10.932 127.469 9.72614 128.105 8.62811ZM177.967 27.5781C177.379 26.9268 176.51 26.554 175.581 26.554H84.2338C85.7332 26.1726 87.115 25.2397 88.3201 24.4442C88.7938 24.1312 89.2329 23.7701 89.676 23.4238C90.44 22.8255 91.1965 22.2192 91.953 21.6129C92.844 20.8993 93.7283 20.1809 94.6146 19.4612C95.4581 18.7778 96.3016 18.0926 97.1396 17.4019C97.924 16.7568 99.6184 15.2188 100.365 14.5145C100.302 14.6383 100.238 14.7622 100.176 14.8867C99.6979 15.8516 99.2106 16.811 98.7566 17.7858C98.0028 19.4119 97.3034 21.2228 97.9573 22.9814C98.1177 23.4134 98.3569 23.8361 98.7022 24.1706C99.7829 25.2175 101.594 25.3346 103.063 25.1331C103.508 25.0727 103.955 24.9766 104.385 24.8552C106.035 24.3906 107.569 23.5914 108.988 22.7115C109.669 22.2876 110.327 21.8365 110.979 21.3769C112.757 20.1229 117.599 16.1812 119.253 14.8287C119.075 16.5688 119.264 18.3681 120.175 19.8999C120.933 21.1729 122.115 22.4595 123.635 22.9907C126.577 24.016 130.165 22.4959 132.601 21.046C134.592 19.8605 136.412 18.4174 138.22 17.0143C140.08 15.5737 144.514 11.3664 144.67 10.9992L146.486 6.12641C144.556 8.22389 140.295 12.6012 138.576 13.8829C136.553 15.387 134.187 17.2645 131.608 17.9004C130.918 18.0698 130.109 18.1315 129.4 18.0181C128.312 17.8462 127.406 17.1782 126.993 16.2564C126.891 16.0278 126.816 15.7943 126.757 15.5583C127.119 15.3679 127.467 15.1744 127.794 14.9797C128.854 14.3493 129.861 13.6475 130.842 12.9192C132.537 11.6616 134.21 10.3737 135.811 9.0163C136.265 8.63118 136.713 8.23991 137.154 7.84063C137.933 7.13202 138.702 6.3772 139.154 5.4517C139.505 4.73323 139.677 3.79355 139.512 3.011C138.977 0.477879 136.026 0.0157478 133.626 0.375597C129.297 1.0269 125.626 3.55139 122.987 6.63599C122.07 7.70692 121.265 8.87581 120.64 10.1149C120.387 10.3004 120.135 10.4859 119.883 10.672C117.756 12.2476 115.647 13.8422 113.331 15.1886C112.428 15.7148 111.494 16.2022 110.525 16.6206C110.103 16.8024 109.68 16.978 109.255 17.1524C108.894 17.2978 108.115 17.6268 107.768 17.267C107.363 16.8492 108.042 15.7579 108.231 15.3488C108.61 14.5305 110.531 10.5075 110.985 9.27016C111.582 7.6453 112.507 4.90268 110.305 3.86072C109.137 3.30862 107.892 3.77075 106.904 4.37708C105.803 5.05364 104.788 5.83804 103.803 6.64462C103.223 7.11969 102.648 7.59908 102.077 8.08278C101.561 8.52212 101.022 8.95037 100.533 9.41497C100.064 9.82288 99.5966 10.2345 99.1345 10.6486C97.894 11.762 96.6536 12.8748 95.4343 14.0074C94.4671 14.9051 93.4945 15.798 92.5388 16.7068C92.0964 17.1271 91.6396 17.5375 91.2108 17.9657C91.1999 17.9768 91.1897 17.9873 91.1802 17.9984C91.1802 17.9984 94.1395 11.6659 94.3903 11.0448C94.7315 10.1963 95.0713 9.32377 95.2229 8.42969C95.3473 7.68473 95.4057 6.79928 94.9864 6.11778C94.7594 5.75054 94.3373 5.39315 93.9206 5.19844C92.7801 4.66791 91.4792 5.08876 90.5059 5.71603C89.2506 6.52446 88.3255 7.66932 87.5935 8.87272C86.9845 9.87032 86.4183 10.8876 85.8691 11.9142C85.7509 11.9986 85.6326 12.0781 85.5429 12.1477C84.9298 12.624 84.297 13.0831 83.6704 13.5465C81.5436 15.122 79.4339 16.7167 77.1183 18.0631C76.2143 18.5893 75.2824 19.0773 74.3119 19.4951C73.8911 19.6768 73.4663 19.8524 73.0415 20.0268C72.6813 20.1722 71.9024 20.5013 71.5551 20.1414C71.1507 19.7237 71.829 18.6336 72.0179 18.2233C72.3972 17.405 74.3173 13.3819 74.7713 12.1447C75.3688 10.5198 76.2952 7.77716 74.0916 6.7352C72.9511 6.19481 71.653 6.61935 70.6824 7.25525C69.429 8.07354 68.5081 9.23381 67.7781 10.4539C67.1093 11.5704 66.5275 12.7269 65.9436 13.8823C63.8088 16.1184 60.7978 19.1352 59.4187 20.1618C57.3967 21.6671 55.03 23.5434 52.452 24.1799C51.7614 24.3493 50.9519 24.4097 50.243 24.2976C49.1562 24.1244 48.2495 23.4565 47.8363 22.5359C47.3659 21.4841 47.3924 20.3429 47.4937 19.2338C47.6303 17.7297 48.1775 16.241 48.9482 14.9076C49.4797 13.9895 50.1819 13.154 50.9703 12.4047C51.7703 11.6455 53.2146 10.4588 54.4829 10.7428C55.0484 10.8704 55.4501 11.7176 55.2699 12.2112C55.0531 12.8095 54.283 13.3277 54.6637 14.0308C55.1999 15.021 56.3826 14.6611 57.2267 14.2508C57.3137 14.2076 57.3967 14.1651 57.4755 14.1232C58.5548 13.5452 59.4806 12.7898 59.9978 11.7306C60.3492 11.0133 60.5205 10.0737 60.3553 9.29111C59.8204 6.75799 56.8692 6.29586 54.4693 6.65694C50.1404 7.30701 46.4694 9.83151 43.8309 12.9161C42.2221 14.7961 40.9545 16.9743 40.4026 19.3078C39.8725 21.55 39.7848 24.1096 41.0177 26.1806C41.0918 26.3057 41.1741 26.4308 41.257 26.5559H3.4185C2.49142 26.5559 1.62143 26.9281 1.03351 27.5787C0.445587 28.2288 0.212454 29.0748 0.395288 29.8993L9.14889 69.5813C9.43571 70.8833 10.7088 71.8279 12.1728 71.8279H166.827C168.292 71.8279 169.564 70.8833 169.852 69.5813L178.605 29.8993C178.788 29.073 178.555 28.227 177.967 27.5781Z" fill="#0088C2"/>
<path d="M23.4534 82.2087V81.3516C23.4534 80.8808 23.3515 80.5419 23.1489 80.3324C22.9464 80.1229 22.7099 80.0182 22.4393 80.0182C22.0105 80.0182 21.7175 80.118 21.5605 80.3164C21.4028 80.516 21.3233 80.8241 21.3233 81.2431V86.8516C21.3233 87.2706 21.4021 87.5799 21.5605 87.7783C21.7175 87.978 22.0105 88.0778 22.4393 88.0778C22.8213 88.0778 23.0871 87.9805 23.2332 87.7864C23.38 87.5929 23.4534 87.3156 23.4534 86.9582V85.626H25.5489V86.8966C25.5489 87.2854 25.4836 87.6527 25.3545 88.0002C25.2247 88.3477 25.033 88.649 24.7795 88.9041C24.526 89.1592 24.2018 89.3613 23.8075 89.5092C23.4133 89.6571 22.9566 89.7316 22.4387 89.7316C21.8868 89.7316 21.4096 89.6571 21.01 89.5092C20.6103 89.3613 20.2773 89.1592 20.0129 88.9041C19.7471 88.649 19.5507 88.3483 19.4209 88.0002C19.2917 87.6527 19.2272 87.2854 19.2272 86.8966V81.1969C19.2272 80.8093 19.2917 80.4409 19.4209 80.0946C19.5507 79.747 19.7471 79.4457 20.0129 79.1894C20.2773 78.9343 20.6103 78.7334 21.01 78.5855C21.4096 78.4377 21.8861 78.3631 22.4387 78.3631C22.9566 78.3631 23.4133 78.4451 23.8075 78.6084C24.2018 78.771 24.526 78.991 24.7795 79.2664C25.033 79.5419 25.224 79.8647 25.3545 80.2314C25.4836 80.5998 25.5489 80.9874 25.5489 81.3966V82.2075H23.4534V82.2087Z" fill="#0088C2"/>
<path d="M27.9658 89.5788V78.5165H30.062V89.5788H27.9658Z" fill="#0088C2"/>
<path d="M32.377 89.5788V78.5165H34.3202L36.8724 84.8447H36.9063V78.5165H38.7993V89.5788H36.9736L34.3025 82.6684H34.2692V89.5788H32.377Z" fill="#0088C2"/>
<path d="M40.8281 89.5788V78.5165H46.4389V80.1716H42.9229V83.0214H45.6273V84.6765H42.9229V87.9244H46.6754V89.5794H40.8281V89.5788Z" fill="#0088C2"/>
<path d="M56.7306 78.5165V89.5788H54.905V80.9381H54.871L52.9781 89.5788H51.964L50.0718 80.9381H50.0378V89.5788H48.2122V78.5165H50.9669L52.454 84.9827H52.488L53.9752 78.5165H56.7306Z" fill="#0088C2"/>
<path d="M59.874 89.5788H57.8466L60.0943 78.5165H62.6974L64.9451 89.5788H62.917L62.5452 87.127H60.2472L59.874 89.5788ZM60.5503 85.4726H62.24L61.4115 80.7237H61.3782L60.5503 85.4726Z" fill="#0088C2"/>
<path d="M69.913 89.5788V78.5165H75.7609V80.1716H72.0084V83.0214H74.8141V84.6765H72.0084V89.5794H69.913V89.5788Z" fill="#0088C2"/>
<path d="M77.4166 81.1982C77.4166 80.8106 77.4819 80.4421 77.611 80.0958C77.7402 79.7483 77.9373 79.447 78.2023 79.1906C78.4674 78.9356 78.7998 78.7347 79.1994 78.5868C79.5998 78.4389 80.0755 78.3643 80.6281 78.3643C81.1807 78.3643 81.6565 78.4389 82.0568 78.5868C82.4565 78.7347 82.7888 78.9356 83.0539 79.1906C83.3183 79.447 83.5161 79.7477 83.6459 80.0958C83.7743 80.4421 83.8396 80.8106 83.8396 81.1982V86.8978C83.8396 87.2866 83.7743 87.6539 83.6459 88.0014C83.5161 88.3489 83.3183 88.6502 83.0539 88.9053C82.7888 89.1604 82.4565 89.3625 82.0568 89.5104C81.6565 89.6583 81.1807 89.7329 80.6281 89.7329C80.0755 89.7329 79.5998 89.6583 79.1994 89.5104C78.7998 89.3625 78.4674 89.1604 78.2023 88.9053C77.9373 88.6502 77.7402 88.3495 77.611 88.0014C77.4819 87.6533 77.4166 87.2866 77.4166 86.8978V81.1982ZM79.5128 86.8516C79.5128 87.2706 79.5909 87.5799 79.7493 87.7783C79.907 87.978 80.1999 88.0778 80.6281 88.0778C81.0563 88.0778 81.3492 87.978 81.5069 87.7783C81.6646 87.5799 81.7435 87.2706 81.7435 86.8516V81.2431C81.7435 80.8241 81.6653 80.5161 81.5069 80.3164C81.3492 80.118 81.0563 80.0182 80.6281 80.0182C80.1999 80.0182 79.907 80.118 79.7493 80.3164C79.5916 80.5161 79.5128 80.8241 79.5128 81.2431V86.8516Z" fill="#0088C2"/>
<path d="M87.9618 89.5788H85.8671V78.5165H88.8074C89.9791 78.5165 90.8641 78.7667 91.4615 79.2677C92.0583 79.768 92.3566 80.606 92.3566 81.7804C92.3566 82.2303 92.3145 82.6135 92.2295 82.9296C92.1446 83.2457 92.0324 83.5144 91.8911 83.7337C91.7504 83.9537 91.5927 84.1299 91.4187 84.2618C91.2433 84.3955 91.0659 84.4978 90.8865 84.5687L92.6611 89.5788H90.531L89.0432 84.9981C88.9079 85.0185 88.7421 85.0308 88.545 85.0357C88.3479 85.0419 88.1535 85.0444 87.9618 85.0444V89.5788ZM87.9618 83.4811H88.7061C88.9875 83.4811 89.2274 83.4559 89.4245 83.4053C89.6216 83.3536 89.782 83.2624 89.9064 83.1287C90.0308 82.9962 90.1198 82.8206 90.1762 82.6006C90.2326 82.3818 90.2612 82.1083 90.2612 81.7811C90.2612 81.1273 90.1429 80.6812 89.9064 80.4403C89.6692 80.2006 89.2695 80.0804 88.7061 80.0804H87.9618V83.4811Z" fill="#0088C2"/>
<path d="M95.5349 89.5788H93.5067L95.7551 78.5165H98.3576L100.606 89.5788H98.5785L98.206 87.127H95.9073L95.5349 89.5788ZM96.2105 85.4726H97.9009L97.0723 80.7237H97.0383L96.2105 85.4726Z" fill="#0088C2"/>
<path d="M105.573 78.5165H108.683C109.775 78.5165 110.601 78.7871 111.159 79.3287C111.717 79.8703 111.995 80.7126 111.995 81.8575V86.2391C111.995 87.3822 111.717 88.2263 111.159 88.7667C110.602 89.3083 109.776 89.5788 108.683 89.5788H105.573V78.5165ZM107.669 88.0168H108.395C108.958 88.0168 109.35 87.9034 109.57 87.6798C109.79 87.4549 109.899 87.0513 109.899 86.469V81.6276C109.899 81.0453 109.79 80.6417 109.57 80.4168C109.351 80.1919 108.959 80.0798 108.395 80.0798H107.669V88.0168Z" fill="#0088C2"/>
<path d="M114.024 89.5788V78.5165H119.635V80.1716H116.119V83.0214H118.823V84.6765H116.119V87.9244H119.871V89.5794H114.024V89.5788Z" fill="#0088C2"/>
<path d="M129.099 81.2438C129.076 81.009 129.028 80.8131 128.955 80.6541C128.881 80.4963 128.791 80.3712 128.685 80.2788C128.577 80.1876 128.462 80.1211 128.338 80.0804C128.213 80.0397 128.096 80.0188 127.983 80.0188C127.646 80.0188 127.386 80.1124 127.206 80.3016C127.025 80.492 126.935 80.7588 126.935 81.107C126.935 81.4237 127.039 81.7145 127.248 81.9807C127.457 82.2457 127.718 82.5112 128.034 82.7774C128.349 83.0424 128.693 83.3104 129.065 83.5815C129.437 83.8527 129.781 84.1509 130.097 84.4781C130.411 84.8041 130.674 85.1651 130.882 85.5576C131.091 85.9514 131.194 86.3987 131.194 86.8984C131.194 87.3581 131.113 87.7648 130.95 88.1166C130.786 88.4691 130.561 88.7655 130.274 89.0058C129.986 89.2455 129.637 89.4272 129.226 89.5499C128.815 89.6725 128.367 89.7341 127.882 89.7341C127.398 89.7341 126.963 89.6522 126.581 89.4889C126.198 89.325 125.874 89.1038 125.609 88.8222C125.344 88.5418 125.138 88.2171 124.992 87.8498C124.845 87.4813 124.761 87.0882 124.739 86.6692L126.733 86.4092C126.778 86.9712 126.914 87.3902 127.139 87.6656C127.364 87.941 127.646 88.0797 127.984 88.0797C128.344 88.0797 128.637 87.9928 128.863 87.8184C129.088 87.6453 129.201 87.3945 129.201 87.0673C129.201 86.7 129.097 86.3728 128.888 86.0876C128.679 85.801 128.418 85.5256 128.102 85.2594C127.787 84.9932 127.443 84.7289 127.071 84.4627C126.7 84.1965 126.356 83.9057 126.04 83.5889C125.724 83.2722 125.462 82.9148 125.254 82.5168C125.046 82.1187 124.942 81.6541 124.942 81.123C124.942 80.2338 125.223 79.5523 125.786 79.0773C126.35 78.6022 127.149 78.365 128.186 78.365C128.615 78.365 128.997 78.4309 129.335 78.5634C129.673 78.6971 129.963 78.8838 130.205 79.1229C130.447 79.3638 130.644 79.6466 130.797 79.9738C130.95 80.2998 131.047 80.6572 131.093 81.046L129.099 81.2438Z" fill="#0088C2"/>
<path d="M132.783 89.5788V78.5165H138.394V80.1716H134.878V83.0214H137.583V84.6765H134.878V87.9244H138.631V89.5795H132.783V89.5788ZM135.926 77.9343H134.523L135.859 75.7283H138.141L135.926 77.9343Z" fill="#0088C2"/>
<path d="M142.382 89.5788H140.286V78.5165H143.227C144.398 78.5165 145.283 78.7667 145.88 79.2677C146.477 79.768 146.775 80.606 146.775 81.7804C146.775 82.2303 146.733 82.6135 146.649 82.9296C146.564 83.2463 146.451 83.5144 146.31 83.7337C146.17 83.9537 146.012 84.1299 145.838 84.2618C145.663 84.3955 145.485 84.4978 145.305 84.5687L147.08 89.5788H144.95L143.463 84.9981C143.327 85.0185 143.161 85.0308 142.964 85.0357C142.767 85.0419 142.572 85.0444 142.381 85.0444L142.382 89.5788ZM142.382 83.4811H143.125C143.407 83.4811 143.647 83.4559 143.844 83.4053C144.042 83.3536 144.202 83.2624 144.326 83.1287C144.45 82.9962 144.539 82.8206 144.596 82.6006C144.652 82.3818 144.681 82.1083 144.681 81.7811C144.681 81.1273 144.562 80.6812 144.326 80.4403C144.089 80.2006 143.689 80.0804 143.125 80.0804H142.382V83.4811Z" fill="#0088C2"/>
<path d="M149.024 89.5788V78.5165H151.12V89.5788H149.024Z" fill="#0088C2"/>
<path d="M153.435 89.5788V78.5165H159.046V80.1716H155.531V83.0214H158.235V84.6765H155.531V87.9244H159.283V89.5794H153.435V89.5788Z" fill="#0088C2"/>
</svg>
